# Blender 5.2.0 LTS
# www.blender.org
mtllib camera.mtl
o Cube.001
v 0.000000 0.000000 0.000000
v -0.250000 -0.250000 -0.500000
v -0.250000 0.250000 -0.500000
v 0.250000 -0.250000 -0.500000
v 0.250000 0.250000 -0.500000
vn -0.8944 -0.0000 0.4472
vn 0.8944 -0.0000 0.4472
vn -0.0000 -0.8944 0.4472
vn -0.0000 0.8944 0.4472
vt 0.500000 0.500000
vt 0.999990 0.999990
vt 0.999990 0.000010
vt 0.000010 0.000010
vt 0.000010 0.999990
s 1
usemtl texture
f 1/1/1 3/2/1 2/3/1
f 4/4/2 5/5/2 1/1/2
f 2/3/3 4/4/3 1/1/3
f 5/5/4 3/2/4 1/1/4
